<?xml version="1.0" standalone="no"?>
<!DOCTYPE svg PUBLIC "-//W3C//DTD SVG 20010904//EN"
 "http://www.w3.org/TR/2001/REC-SVG-20010904/DTD/svg10.dtd">
<svg version="1.0" xmlns="http://www.w3.org/2000/svg"
 width="225.000000pt" height="225.000000pt" viewBox="0 0 225.000000 225.000000"
 preserveAspectRatio="xMidYMid meet">
<metadata>
Created by potrace 1.10, written by Peter Selinger 2001-2011
</metadata>
<g transform="translate(0.000000,225.000000) scale(0.100000,-0.100000)"
fill="#000000" stroke="none">
<path d="M900 2225 c-134 -27 -277 -86 -400 -166 -84 -55 -254 -225 -309 -309
-112 -172 -183 -386 -180 -543 l1 -62 19 99 c55 293 145 472 324 651 149 150
332 253 520 294 50 11 122 26 160 34 l70 15 -70 0 c-38 0 -99 -6 -135 -13z"/>
<path d="M1290 2208 c80 -16 179 -43 220 -59 81 -31 217 -106 277 -154 75 -58
191 -182 241 -255 98 -146 141 -257 194 -505 11 -55 13 -57 16 -25 2 19 -2 69
-8 110 -55 343 -294 660 -615 815 -136 66 -293 106 -408 104 -59 0 -54 -2 83
-31z"/>
<path d="M1192 1840 c-242 -64 -355 -229 -368 -540 -3 -63 -7 -121 -9 -127 -3
-9 -30 -13 -89 -13 -130 0 -130 0 -134 -197 -3 -149 -2 -160 18 -186 20 -26
26 -27 111 -27 84 0 89 -1 94 -22 3 -13 4 -162 3 -333 l-3 -310 -29 2 c-47 4
-223 95 -311 161 -234 176 -369 397 -434 713 -28 136 -30 140 -30 82 -1 -34 5
-94 13 -135 75 -393 365 -720 754 -852 l72 -25 0 375 0 374 -115 0 -115 0 0
176 0 175 114 -3 113 -3 6 150 c3 88 12 175 22 210 49 183 157 288 341 331 78
18 267 20 359 4 33 -5 63 -10 68 -10 4 0 7 -71 7 -158 l0 -158 -112 0 c-211
-1 -265 -53 -276 -264 l-5 -105 187 3 c102 2 186 -1 186 -5 0 -4 -14 -80 -30
-168 -16 -88 -30 -163 -30 -167 0 -5 -70 -8 -155 -8 l-155 0 0 -385 c0 -301 3
-385 13 -385 32 1 189 41 252 65 284 107 537 357 646 639 39 100 69 234 68
306 0 74 -12 48 -34 -70 -44 -246 -143 -433 -322 -607 -52 -51 -99 -93 -104
-93 -6 0 -22 -11 -37 -25 -72 -67 -386 -191 -435 -172 -16 6 -17 32 -17 337 1
182 4 338 7 345 4 12 30 15 132 15 165 0 160 -4 196 185 14 77 27 148 29 157
2 10 -5 29 -16 43 -19 25 -21 25 -173 25 -184 0 -181 -2 -171 106 9 93 15 111
56 151 38 37 74 46 197 48 134 1 133 0 133 185 0 141 -1 147 -24 169 -47 44
-327 57 -464 21z"/>
</g>
</svg>
