<?xml version="1.0" standalone="no"?>
<!DOCTYPE svg PUBLIC "-//W3C//DTD SVG 20010904//EN"
 "http://www.w3.org/TR/2001/REC-SVG-20010904/DTD/svg10.dtd">
<svg version="1.0" xmlns="http://www.w3.org/2000/svg"
 width="900.000000pt" height="900.000000pt" viewBox="0 0 900.000000 900.000000"
 preserveAspectRatio="xMidYMid meet">
<metadata>
Created by potrace 1.10, written by Peter Selinger 2001-2011
</metadata>
<g transform="translate(0.000000,900.000000) scale(0.100000,-0.100000)"
fill="#000000" stroke="none">
<path d="M8220 7811 c-44 -7 -127 -63 -440 -296 -19 -15 -93 -69 -165 -121
-71 -52 -135 -98 -140 -103 -6 -4 -35 -25 -65 -46 -30 -21 -71 -51 -91 -66
-20 -16 -42 -29 -48 -29 -6 0 -11 -4 -11 -9 0 -5 -26 -26 -57 -47 -32 -22 -62
-42 -68 -47 -75 -57 -251 -187 -290 -213 -27 -18 -63 -44 -80 -56 -16 -13 -92
-69 -170 -125 -77 -57 -177 -130 -222 -163 -45 -33 -87 -60 -93 -60 -5 0 -10
-4 -10 -9 0 -5 -26 -26 -57 -47 -32 -22 -120 -85 -195 -141 -76 -57 -141 -103
-146 -103 -4 0 -21 -13 -38 -28 -16 -16 -42 -37 -59 -48 -16 -10 -73 -50 -125
-90 -52 -39 -100 -73 -106 -75 -6 -2 -24 -14 -40 -27 -78 -61 -324 -242 -329
-242 -2 0 -67 -47 -142 -103 -76 -57 -147 -109 -158 -115 -19 -10 -315 -228
-342 -251 -16 -14 -70 -14 -86 -1 -7 6 -59 45 -117 88 -58 42 -119 87 -135
100 -17 12 -52 38 -80 56 -51 35 -270 196 -292 215 -7 6 -15 11 -18 11 -3 0
-59 40 -123 88 -64 48 -138 102 -165 120 -26 17 -53 36 -60 42 -40 34 -228
170 -234 170 -5 0 -23 13 -41 30 -18 17 -35 30 -38 30 -3 0 -40 26 -82 58 -42
32 -85 61 -94 65 -10 3 -18 11 -18 17 0 5 -5 10 -10 10 -6 0 -64 41 -130 90
-66 50 -122 90 -126 90 -3 0 -18 10 -33 23 -15 12 -38 30 -52 40 -196 142
-287 209 -300 222 -9 8 -19 15 -23 15 -4 0 -52 34 -106 75 -54 41 -104 75
-110 75 -5 0 -10 4 -10 9 0 5 -17 20 -37 32 -21 13 -100 69 -175 126 -76 57
-140 103 -144 103 -5 0 -46 30 -99 73 -5 4 -41 30 -80 57 -38 27 -77 56 -86
65 -9 8 -19 15 -23 15 -11 0 -106 74 -106 82 0 4 -5 8 -11 8 -6 0 -37 20 -69
45 -32 25 -61 45 -64 45 -4 0 -69 47 -146 105 -78 58 -145 105 -150 105 -6 0
-10 4 -10 9 0 5 -15 17 -32 26 -56 28 -394 17 -433 -15 -5 -4 -24 -11 -42 -14
-17 -4 -37 -14 -44 -22 -6 -8 -16 -14 -21 -14 -16 0 -89 -59 -135 -110 -53
-56 -113 -170 -113 -213 0 -17 -7 -45 -15 -61 -13 -25 -15 -371 -15 -2892 0
-1649 4 -2865 9 -2868 5 -3 12 -26 16 -52 9 -63 60 -157 122 -225 50 -54 144
-119 195 -134 12 -4 28 -11 33 -15 28 -22 176 -31 440 -28 l280 3 1 2405 c1
1323 5 2462 9 2533 9 147 10 147 88 90 28 -21 61 -45 73 -53 13 -8 123 -87
245 -175 122 -88 248 -178 279 -200 31 -22 85 -60 119 -85 70 -50 262 -188
391 -280 182 -130 420 -301 571 -410 27 -19 87 -62 134 -95 47 -33 125 -88
173 -123 122 -89 156 -113 423 -302 50 -36 145 -103 210 -150 65 -47 159 -114
210 -150 50 -36 144 -103 209 -150 64 -47 127 -92 140 -100 12 -8 42 -30 66
-47 23 -18 47 -33 52 -33 5 0 29 14 53 32 24 18 80 57 124 88 77 55 586 418
730 521 39 28 135 97 215 154 265 190 314 225 436 314 66 49 125 90 130 92 10
4 118 81 315 227 55 39 102 72 104 72 3 0 45 29 93 64 48 36 110 81 137 101
28 20 82 59 122 88 39 29 123 88 185 132 62 44 118 83 123 87 12 9 187 136
308 222 191 138 277 196 290 196 11 0 16 -26 21 -109 3 -60 6 -1200 6 -2533
l0 -2423 332 0 c328 0 334 0 398 24 89 34 139 67 213 138 65 63 117 152 137
231 6 24 18 46 26 49 12 4 14 382 14 2899 0 2202 -3 2893 -12 2891 -14 -3 -38
40 -38 71 0 12 -4 30 -9 40 -6 9 -20 39 -33 66 -55 117 -207 228 -363 266 -55
13 -270 21 -325 11z"/>
</g>
</svg>
